<svg width="60" height="61" viewBox="0 0 60 61" fill="none" xmlns="http://www.w3.org/2000/svg">
<g filter="url(#filter0_d_2115_136402)">
<rect x="5" y="3.5" width="50" height="50" rx="25" fill="white"/>
<path fill-rule="evenodd" clip-rule="evenodd" d="M30 27.4C29.39 27.4 28.9 27.89 28.9 28.5C28.9 29.11 29.39 29.6 30 29.6C30.61 29.6 31.1 29.11 31.1 28.5C31.1 27.89 30.61 27.4 30 27.4ZM30 18.5C24.48 18.5 20 22.98 20 28.5C20 34.02 24.48 38.5 30 38.5C35.52 38.5 40 34.02 40 28.5C40 22.98 35.52 18.5 30 18.5ZM32.19 30.69L24 34.5L27.81 26.31L36 22.5L32.19 30.69Z" fill="#C3CAD9"/>
</g>
<defs>
<filter id="filter0_d_2115_136402" x="0" y="0.5" width="60" height="60" filterUnits="userSpaceOnUse" color-interpolation-filters="sRGB">
<feFlood flood-opacity="0" result="BackgroundImageFix"/>
<feColorMatrix in="SourceAlpha" type="matrix" values="0 0 0 0 0 0 0 0 0 0 0 0 0 0 0 0 0 0 127 0" result="hardAlpha"/>
<feOffset dy="2"/>
<feGaussianBlur stdDeviation="2.5"/>
<feColorMatrix type="matrix" values="0 0 0 0 0.14902 0 0 0 0 0.2 0 0 0 0 0.301961 0 0 0 0.03 0"/>
<feBlend mode="normal" in2="BackgroundImageFix" result="effect1_dropShadow_2115_136402"/>
<feBlend mode="normal" in="SourceGraphic" in2="effect1_dropShadow_2115_136402" result="shape"/>
</filter>
</defs>
</svg>
