<svg width="60" height="61" viewBox="0 0 60 61" fill="none" xmlns="http://www.w3.org/2000/svg">
<g filter="url(#filter0_d_2115_136417)">
<rect x="5" y="3.5" width="50" height="50" rx="25" fill="white"/>
<path fill-rule="evenodd" clip-rule="evenodd" d="M30 18.5C24.48 18.5 20 22.98 20 28.5C20 34.02 24.48 38.5 30 38.5C35.52 38.5 40 34.02 40 28.5C40 22.98 35.52 18.5 30 18.5ZM34 29.5H31V32.5C31 33.05 30.55 33.5 30 33.5C29.45 33.5 29 33.05 29 32.5V29.5H26C25.45 29.5 25 29.05 25 28.5C25 27.95 25.45 27.5 26 27.5H29V24.5C29 23.95 29.45 23.5 30 23.5C30.55 23.5 31 23.95 31 24.5V27.5H34C34.55 27.5 35 27.95 35 28.5C35 29.05 34.55 29.5 34 29.5Z" fill="#C3CAD9"/>
</g>
<defs>
<filter id="filter0_d_2115_136417" x="0" y="0.5" width="60" height="60" filterUnits="userSpaceOnUse" color-interpolation-filters="sRGB">
<feFlood flood-opacity="0" result="BackgroundImageFix"/>
<feColorMatrix in="SourceAlpha" type="matrix" values="0 0 0 0 0 0 0 0 0 0 0 0 0 0 0 0 0 0 127 0" result="hardAlpha"/>
<feOffset dy="2"/>
<feGaussianBlur stdDeviation="2.5"/>
<feColorMatrix type="matrix" values="0 0 0 0 0.14902 0 0 0 0 0.2 0 0 0 0 0.301961 0 0 0 0.03 0"/>
<feBlend mode="normal" in2="BackgroundImageFix" result="effect1_dropShadow_2115_136417"/>
<feBlend mode="normal" in="SourceGraphic" in2="effect1_dropShadow_2115_136417" result="shape"/>
</filter>
</defs>
</svg>
