<svg width="24" height="15" viewBox="0 0 24 15" fill="none" xmlns="http://www.w3.org/2000/svg">
<g id="Logo">
<path id="Icon" d="M15.1531 12.7453H8.91553V1.53552H15.1532L15.1531 12.7453Z" fill="#FF5F00"/>
<path id="Icon_2" d="M9.31098 7.14065C9.31098 4.86675 10.3757 2.84114 12.0336 1.53576C10.7786 0.546192 9.22643 0.00912094 7.62824 0.0114824C3.69133 0.0114824 0.5 3.20327 0.5 7.14065C0.5 11.078 3.69133 14.2698 7.62824 14.2698C9.22647 14.2722 10.7787 13.7351 12.0337 12.7455C10.3759 11.4404 9.31098 9.41467 9.31098 7.14065Z" fill="#EB001B"/>
<path id="Icon_3" d="M23.5682 7.14065C23.5682 11.078 20.3769 14.2698 16.44 14.2698C14.8416 14.2722 13.2892 13.7351 12.0339 12.7455C13.6923 11.4402 14.757 9.41467 14.757 7.14065C14.757 4.86663 13.6923 2.84114 12.0339 1.53576C13.2891 0.546222 14.8415 0.00916233 16.4399 0.0114821C20.3768 0.0114821 23.5681 3.20327 23.5681 7.14065" fill="#F79E1B"/>
</g>
</svg>
