<svg width="60" height="38" viewBox="0 0 60 38" fill="none" xmlns="http://www.w3.org/2000/svg">
<g id="Mastercard">
<path id="Icon" d="M38.1206 34.0362H21.9029V4.89081H38.1209L38.1206 34.0362Z" fill="#FF5F00"/>
<path id="Icon_2" d="M22.931 19.4641C22.931 13.552 25.6993 8.28543 30.0099 4.89142C26.747 2.31855 22.7112 0.922164 18.5559 0.928304C8.31994 0.928304 0.0224915 9.22695 0.0224915 19.4641C0.0224915 29.7013 8.31994 38 18.5559 38C22.7113 38.0062 26.7472 36.6098 30.0102 34.0368C25.6999 30.6434 22.931 25.3766 22.931 19.4641Z" fill="#EB001B"/>
<path id="Icon_3" d="M60 19.4641C60 29.7013 51.7026 38 41.4666 38C37.3107 38.0061 33.2744 36.6097 30.0108 34.0368C34.3226 30.6428 37.0909 25.3766 37.0909 19.4641C37.0909 13.5517 34.3226 8.28542 30.0108 4.89142C33.2744 2.31863 37.3106 0.922272 41.4663 0.928303C51.7023 0.928303 59.9997 9.22695 59.9997 19.4641" fill="#F79E1B"/>
</g>
</svg>
